G04 Layer: BottomSolderMaskLayer*
G04 EasyEDA v6.4.25, 2021-11-26T11:29:21--8:00*
G04 ba2494323d054017aa17e43c7504b7a8,82b849d010ff45bfbede6d5bbb018b0e,10*
G04 Gerber Generator version 0.2*
G04 Scale: 100 percent, Rotated: No, Reflected: No *
G04 Dimensions in millimeters *
G04 leading zeros omitted , absolute positions ,4 integer and 5 decimal *
%FSLAX45Y45*%
%MOMM*%

%ADD27C,1.6256*%
%ADD29C,1.7272*%
%ADD30C,1.9016*%
%ADD33R,1.0922X1.8034*%
%ADD35C,2.0040*%

%LPD*%
D27*
G01*
X1080770Y9469120D03*
G01*
X1281429Y9469120D03*
G01*
X1479550Y9469120D03*
G01*
X1680210Y9469120D03*
G01*
X1880870Y9469120D03*
G01*
X2081529Y9469120D03*
G01*
X2279650Y9469120D03*
G01*
X2480309Y9469120D03*
G01*
X2680970Y9469120D03*
G36*
X2800350Y9387839D02*
G01*
X2800350Y9550400D01*
X2962909Y9550400D01*
X2962909Y9387839D01*
G37*
G01*
X1080770Y7269479D03*
G01*
X1281429Y7269479D03*
G01*
X1479550Y7269479D03*
G01*
X1680210Y7269479D03*
G01*
X1880870Y7269479D03*
G01*
X2081529Y7269479D03*
G01*
X2279650Y7269479D03*
G01*
X2480309Y7269479D03*
G01*
X2680970Y7269479D03*
G01*
X2881629Y7269479D03*
D29*
G01*
X965200Y6210300D03*
G01*
X1727200Y6210300D03*
D30*
G01*
X1384300Y5295900D03*
G36*
X1035304Y5200904D02*
G01*
X1035304Y5390895D01*
X1225295Y5390895D01*
X1225295Y5200904D01*
G37*
G01*
X4597400Y7048500D03*
G36*
X4248404Y6953504D02*
G01*
X4248404Y7143495D01*
X4438395Y7143495D01*
X4438395Y6953504D01*
G37*
G36*
X4266438Y3083813D02*
G01*
X4266438Y3307334D01*
X4540758Y3307334D01*
X4540758Y3083813D01*
G37*
G36*
X4266438Y1544065D02*
G01*
X4266438Y1767586D01*
X4540758Y1767586D01*
X4540758Y1544065D01*
G37*
G36*
X1326642Y2563876D02*
G01*
X1326642Y2787395D01*
X1600962Y2787395D01*
X1600962Y2563876D01*
G37*
G36*
X1326642Y2064004D02*
G01*
X1326642Y2287523D01*
X1600962Y2287523D01*
X1600962Y2064004D01*
G37*
D33*
G01*
X4483100Y6311900D03*
G01*
X4610100Y6311900D03*
G01*
X4356100Y6311900D03*
G01*
X4229100Y6311900D03*
D30*
G01*
X1587500Y6692900D03*
G01*
X1333500Y6692900D03*
G36*
X995679Y6597904D02*
G01*
X995679Y6787895D01*
X1163320Y6787895D01*
X1163320Y6597904D01*
G37*
D35*
G01*
X1396009Y4575987D03*
G01*
X1396009Y4075988D03*
G01*
X3834409Y4614087D03*
G01*
X3834409Y4114088D03*
D29*
G01*
X4178300Y9105900D03*
G01*
X4940300Y9105900D03*
G01*
X4191000Y8623300D03*
G01*
X4953000Y8623300D03*
G01*
X4203700Y8140700D03*
G01*
X4965700Y8140700D03*
G01*
X4203700Y7670800D03*
G01*
X4965700Y7670800D03*
G01*
X2184400Y5422900D03*
G01*
X2184400Y4660900D03*
G01*
X2628900Y5422900D03*
G01*
X2628900Y4660900D03*
G01*
X2184400Y4432300D03*
G01*
X2184400Y3670300D03*
G01*
X2628900Y4432300D03*
G01*
X2628900Y3670300D03*
G01*
X3060700Y4419600D03*
G01*
X3060700Y3657600D03*
G01*
X965200Y5778500D03*
G01*
X1727200Y5778500D03*
M02*
