M48
METRIC,LZ,000.000
;FILE_FORMAT=3:3
;TYPE=PLATED
;Layer: Drill PTH
;EasyEDA v6.4.25, 2021-11-26T11:29:21--8:00
;ba2494323d054017aa17e43c7504b7a8,82b849d010ff45bfbede6d5bbb018b0e,10
;Gerber Generator version 0.2
;Holesize 1 = 0.301 mm
T01C0.301
;Holesize 2 = 0.306 mm
T02C0.306
;Holesize 3 = 0.686 mm
T03C0.686
;Holesize 4 = 0.702 mm
T04C0.702
;Holesize 5 = 0.762 mm
T05C0.762
;Holesize 6 = 1.000 mm
T06C1.000
;Holesize 7 = 1.016 mm
T07C1.016
;Holesize 8 = 1.200 mm
T08C1.200
%
G05
G90
T01
X028729Y043025
T02
X029593Y069139
X028327Y062574
T03
X009652Y062103
X017272Y062103
X041783Y091059
X049403Y091059
X041910Y086233
X049530Y086233
X042037Y081407
X049657Y081407
X042037Y076708
X049657Y076708
X021844Y054229
X021844Y046609
X026289Y054229
X026289Y046609
X021844Y044323
X021844Y036703
X026289Y044323
X026289Y036703
X030607Y044196
X030607Y036576
X009652Y057785
X017272Y057785
T04
X010808Y094691
X012814Y094691
X014796Y094691
X016802Y094691
X018809Y094691
X020815Y094691
X022797Y094691
X024803Y094691
X026810Y094691
X028816Y094691
X010808Y072695
X012814Y072695
X014796Y072695
X016802Y072695
X018809Y072695
X020815Y072695
X022797Y072695
X024803Y072695
X026810Y072695
X028816Y072695
T05
X044831Y063119
X046101Y063119
X043561Y063119
X042291Y063119
T06
X013960Y045760
X013960Y040760
X038344Y046141
X038344Y041141
T07
X044036Y031956
X044036Y016558
X014638Y026756
X014638Y021758
T08
X013843Y052959
X011303Y052959
X045974Y070485
X043434Y070485
X015875Y066929
X013335Y066929
X010795Y066929
M30
