G04 Layer: TopSilkLayer*
G04 EasyEDA v6.4.25, 2021-11-26T11:29:21--8:00*
G04 ba2494323d054017aa17e43c7504b7a8,82b849d010ff45bfbede6d5bbb018b0e,10*
G04 Gerber Generator version 0.2*
G04 Scale: 100 percent, Rotated: No, Reflected: No *
G04 Dimensions in millimeters *
G04 leading zeros omitted , absolute positions ,4 integer and 5 decimal *
%FSLAX45Y45*%
%MOMM*%

%ADD10C,0.2540*%
%ADD22C,0.2032*%
%ADD23C,0.2030*%
%ADD24C,1.0000*%
%ADD25C,0.5000*%
%ADD26C,0.1524*%

%LPD*%
D22*
X3632200Y5843778D02*
G01*
X3632200Y5649976D01*
X3761486Y5843778D02*
G01*
X3761486Y5649976D01*
X3632200Y5751576D02*
G01*
X3761486Y5751576D01*
X3868674Y5779262D02*
G01*
X3850131Y5769863D01*
X3831590Y5751576D01*
X3822445Y5723889D01*
X3822445Y5705347D01*
X3831590Y5677662D01*
X3850131Y5659120D01*
X3868674Y5649976D01*
X3896359Y5649976D01*
X3914902Y5659120D01*
X3933190Y5677662D01*
X3942588Y5705347D01*
X3942588Y5723889D01*
X3933190Y5751576D01*
X3914902Y5769863D01*
X3896359Y5779262D01*
X3868674Y5779262D01*
X4003547Y5779262D02*
G01*
X4003547Y5649976D01*
X4003547Y5742178D02*
G01*
X4031234Y5769863D01*
X4049775Y5779262D01*
X4077461Y5779262D01*
X4095750Y5769863D01*
X4105147Y5742178D01*
X4105147Y5649976D01*
X4105147Y5742178D02*
G01*
X4132834Y5769863D01*
X4151375Y5779262D01*
X4179061Y5779262D01*
X4197350Y5769863D01*
X4206747Y5742178D01*
X4206747Y5649976D01*
X4267708Y5723889D02*
G01*
X4378452Y5723889D01*
X4378452Y5742178D01*
X4369308Y5760720D01*
X4359909Y5769863D01*
X4341622Y5779262D01*
X4313936Y5779262D01*
X4295393Y5769863D01*
X4276852Y5751576D01*
X4267708Y5723889D01*
X4267708Y5705347D01*
X4276852Y5677662D01*
X4295393Y5659120D01*
X4313936Y5649976D01*
X4341622Y5649976D01*
X4359909Y5659120D01*
X4378452Y5677662D01*
X4578095Y5797550D02*
G01*
X4568697Y5816092D01*
X4550409Y5834634D01*
X4531868Y5843778D01*
X4494784Y5843778D01*
X4476495Y5834634D01*
X4457954Y5816092D01*
X4448809Y5797550D01*
X4439411Y5769863D01*
X4439411Y5723889D01*
X4448809Y5695950D01*
X4457954Y5677662D01*
X4476495Y5659120D01*
X4494784Y5649976D01*
X4531868Y5649976D01*
X4550409Y5659120D01*
X4568697Y5677662D01*
X4578095Y5695950D01*
X4578095Y5723889D01*
X4531868Y5723889D02*
G01*
X4578095Y5723889D01*
X4639056Y5779262D02*
G01*
X4639056Y5649976D01*
X4639056Y5723889D02*
G01*
X4648200Y5751576D01*
X4666741Y5769863D01*
X4685029Y5779262D01*
X4712970Y5779262D01*
X4773929Y5843778D02*
G01*
X4783074Y5834634D01*
X4792218Y5843778D01*
X4783074Y5853176D01*
X4773929Y5843778D01*
X4783074Y5779262D02*
G01*
X4783074Y5649976D01*
X4964175Y5843778D02*
G01*
X4964175Y5649976D01*
X4964175Y5751576D02*
G01*
X4945634Y5769863D01*
X4927091Y5779262D01*
X4899406Y5779262D01*
X4880863Y5769863D01*
X4862575Y5751576D01*
X4853177Y5723889D01*
X4853177Y5705347D01*
X4862575Y5677662D01*
X4880863Y5659120D01*
X4899406Y5649976D01*
X4927091Y5649976D01*
X4945634Y5659120D01*
X4964175Y5677662D01*
X3736086Y5422392D02*
G01*
X3717543Y5440934D01*
X3689858Y5450078D01*
X3653027Y5450078D01*
X3625341Y5440934D01*
X3606800Y5422392D01*
X3606800Y5403850D01*
X3615943Y5385562D01*
X3625341Y5376163D01*
X3643629Y5367020D01*
X3699256Y5348478D01*
X3717543Y5339334D01*
X3726941Y5330189D01*
X3736086Y5311647D01*
X3736086Y5283962D01*
X3717543Y5265420D01*
X3689858Y5256276D01*
X3653027Y5256276D01*
X3625341Y5265420D01*
X3606800Y5283962D01*
X3815588Y5293105D02*
G01*
X3806190Y5283962D01*
X3797045Y5293105D01*
X3806190Y5302250D01*
X3815588Y5293105D01*
X3815588Y5274563D01*
X3797045Y5256276D01*
X3876547Y5450078D02*
G01*
X3876547Y5256276D01*
X3876547Y5450078D02*
G01*
X4005834Y5256276D01*
X4005834Y5450078D02*
G01*
X4005834Y5256276D01*
X4085336Y5293105D02*
G01*
X4075938Y5283962D01*
X4066793Y5293105D01*
X4075938Y5302250D01*
X4085336Y5293105D01*
X4085336Y5274563D01*
X4066793Y5256276D01*
X4238497Y5450078D02*
G01*
X4238497Y5302250D01*
X4229354Y5274563D01*
X4220209Y5265420D01*
X4201668Y5256276D01*
X4183125Y5256276D01*
X4164584Y5265420D01*
X4155440Y5274563D01*
X4146295Y5302250D01*
X4146295Y5320792D01*
X4318000Y5293105D02*
G01*
X4308856Y5283962D01*
X4299458Y5293105D01*
X4308856Y5302250D01*
X4318000Y5293105D01*
X4318000Y5274563D01*
X4299458Y5256276D01*
X4378959Y5450078D02*
G01*
X4378959Y5256276D01*
X4378959Y5450078D02*
G01*
X4443729Y5450078D01*
X4471415Y5440934D01*
X4489704Y5422392D01*
X4499102Y5403850D01*
X4508245Y5376163D01*
X4508245Y5330189D01*
X4499102Y5302250D01*
X4489704Y5283962D01*
X4471415Y5265420D01*
X4443729Y5256276D01*
X4378959Y5256276D01*
D26*
X3842765Y8369300D02*
G01*
X3733800Y8296655D01*
X3842765Y8296655D02*
G01*
X3733800Y8369300D01*
X3842765Y8262365D02*
G01*
X3733800Y8262365D01*
X3842765Y8262365D02*
G01*
X3842765Y8215629D01*
X3837686Y8199881D01*
X3832352Y8194802D01*
X3821938Y8189468D01*
X3811524Y8189468D01*
X3801109Y8194802D01*
X3796029Y8199881D01*
X3790950Y8215629D01*
X3790950Y8262365D02*
G01*
X3790950Y8215629D01*
X3785615Y8199881D01*
X3780536Y8194802D01*
X3770122Y8189468D01*
X3754374Y8189468D01*
X3743959Y8194802D01*
X3738879Y8199881D01*
X3733800Y8215629D01*
X3733800Y8262365D01*
X3842765Y8155178D02*
G01*
X3733800Y8155178D01*
X3842765Y8155178D02*
G01*
X3842765Y8087613D01*
X3790950Y8155178D02*
G01*
X3790950Y8113776D01*
X3733800Y8155178D02*
G01*
X3733800Y8087613D01*
X3842765Y8053323D02*
G01*
X3733800Y8053323D01*
X3842765Y8053323D02*
G01*
X3842765Y7985760D01*
X3790950Y8053323D02*
G01*
X3790950Y8011921D01*
X3733800Y8053323D02*
G01*
X3733800Y7985760D01*
X3697224Y7951470D02*
G01*
X3697224Y7857997D01*
X3842765Y7813294D02*
G01*
X3842765Y7756144D01*
X3801109Y7787386D01*
X3801109Y7771892D01*
X3796029Y7761478D01*
X3790950Y7756144D01*
X3775202Y7751063D01*
X3764788Y7751063D01*
X3749293Y7756144D01*
X3738879Y7766558D01*
X3733800Y7782305D01*
X3733800Y7797800D01*
X3738879Y7813294D01*
X3743959Y7818628D01*
X3754374Y7823708D01*
X1346200Y6478015D02*
G01*
X1346200Y6369050D01*
X1346200Y6478015D02*
G01*
X1392936Y6478015D01*
X1408429Y6472936D01*
X1413763Y6467602D01*
X1418844Y6457187D01*
X1418844Y6446773D01*
X1413763Y6436360D01*
X1408429Y6431279D01*
X1392936Y6426200D01*
X1346200Y6426200D01*
X1382521Y6426200D02*
G01*
X1418844Y6369050D01*
X1453134Y6457187D02*
G01*
X1463547Y6462521D01*
X1479295Y6478015D01*
X1479295Y6369050D01*
X1544573Y6478015D02*
G01*
X1529079Y6472936D01*
X1518665Y6457187D01*
X1513586Y6431279D01*
X1513586Y6415786D01*
X1518665Y6389623D01*
X1529079Y6374129D01*
X1544573Y6369050D01*
X1554987Y6369050D01*
X1570736Y6374129D01*
X1581150Y6389623D01*
X1586229Y6415786D01*
X1586229Y6431279D01*
X1581150Y6457187D01*
X1570736Y6472936D01*
X1554987Y6478015D01*
X1544573Y6478015D01*
X1244600Y5576315D02*
G01*
X1244600Y5467350D01*
X1244600Y5576315D02*
G01*
X1291336Y5576315D01*
X1306829Y5571236D01*
X1312163Y5565902D01*
X1317244Y5555487D01*
X1317244Y5545073D01*
X1312163Y5534660D01*
X1306829Y5529579D01*
X1291336Y5524500D01*
X1244600Y5524500D01*
X1280921Y5524500D02*
G01*
X1317244Y5467350D01*
X1351534Y5576315D02*
G01*
X1351534Y5467350D01*
X1351534Y5576315D02*
G01*
X1419097Y5576315D01*
X1351534Y5524500D02*
G01*
X1393189Y5524500D01*
X1351534Y5467350D02*
G01*
X1419097Y5467350D01*
X1453387Y5576315D02*
G01*
X1453387Y5467350D01*
X1453387Y5467350D02*
G01*
X1515871Y5467350D01*
X1591563Y5576315D02*
G01*
X1550162Y5467350D01*
X1591563Y5576315D02*
G01*
X1633220Y5467350D01*
X1565655Y5503671D02*
G01*
X1617726Y5503671D01*
X1667510Y5576315D02*
G01*
X1709165Y5524500D01*
X1709165Y5467350D01*
X1750568Y5576315D02*
G01*
X1709165Y5524500D01*
X1784857Y5430773D02*
G01*
X1878329Y5430773D01*
X1912620Y5576315D02*
G01*
X1912620Y5467350D01*
X1912620Y5576315D02*
G01*
X1985518Y5467350D01*
X1985518Y5576315D02*
G01*
X1985518Y5467350D01*
X2051050Y5576315D02*
G01*
X2040636Y5571236D01*
X2030222Y5560821D01*
X2024888Y5550407D01*
X2019808Y5534660D01*
X2019808Y5508752D01*
X2024888Y5493257D01*
X2030222Y5482844D01*
X2040636Y5472429D01*
X2051050Y5467350D01*
X2071624Y5467350D01*
X2082038Y5472429D01*
X2092452Y5482844D01*
X2097786Y5493257D01*
X2102865Y5508752D01*
X2102865Y5534660D01*
X2097786Y5550407D01*
X2092452Y5560821D01*
X2082038Y5571236D01*
X2071624Y5576315D01*
X2051050Y5576315D01*
X2137156Y5430773D02*
G01*
X2230627Y5430773D01*
X2342895Y5550407D02*
G01*
X2337815Y5560821D01*
X2327402Y5571236D01*
X2316988Y5576315D01*
X2296159Y5576315D01*
X2285745Y5571236D01*
X2275331Y5560821D01*
X2270252Y5550407D01*
X2264918Y5534660D01*
X2264918Y5508752D01*
X2270252Y5493257D01*
X2275331Y5482844D01*
X2285745Y5472429D01*
X2296159Y5467350D01*
X2316988Y5467350D01*
X2327402Y5472429D01*
X2337815Y5482844D01*
X2342895Y5493257D01*
X2408427Y5576315D02*
G01*
X2398013Y5571236D01*
X2387600Y5560821D01*
X2382520Y5550407D01*
X2377186Y5534660D01*
X2377186Y5508752D01*
X2382520Y5493257D01*
X2387600Y5482844D01*
X2398013Y5472429D01*
X2408427Y5467350D01*
X2429256Y5467350D01*
X2439670Y5472429D01*
X2449829Y5482844D01*
X2455163Y5493257D01*
X2460243Y5508752D01*
X2460243Y5534660D01*
X2455163Y5550407D01*
X2449829Y5560821D01*
X2439670Y5571236D01*
X2429256Y5576315D01*
X2408427Y5576315D01*
X2494534Y5576315D02*
G01*
X2494534Y5467350D01*
X2494534Y5576315D02*
G01*
X2536190Y5467350D01*
X2577845Y5576315D02*
G01*
X2536190Y5467350D01*
X2577845Y5576315D02*
G01*
X2577845Y5467350D01*
X4530343Y7313421D02*
G01*
X4519929Y7323836D01*
X4504436Y7328915D01*
X4483608Y7328915D01*
X4468113Y7323836D01*
X4457700Y7313421D01*
X4457700Y7303008D01*
X4462779Y7292594D01*
X4468113Y7287260D01*
X4478527Y7282179D01*
X4509770Y7271765D01*
X4519929Y7266686D01*
X4525263Y7261352D01*
X4530343Y7250937D01*
X4530343Y7235444D01*
X4519929Y7225029D01*
X4504436Y7219950D01*
X4483608Y7219950D01*
X4468113Y7225029D01*
X4457700Y7235444D01*
X4564634Y7328915D02*
G01*
X4590795Y7219950D01*
X4616704Y7328915D02*
G01*
X4590795Y7219950D01*
X4616704Y7328915D02*
G01*
X4642611Y7219950D01*
X4668520Y7328915D02*
G01*
X4642611Y7219950D01*
X4702809Y7328915D02*
G01*
X4702809Y7219950D01*
X4773675Y7328915D02*
G01*
X4773675Y7219950D01*
X4737100Y7328915D02*
G01*
X4809997Y7328915D01*
X4922265Y7303008D02*
G01*
X4916931Y7313421D01*
X4906518Y7323836D01*
X4896104Y7328915D01*
X4875529Y7328915D01*
X4865115Y7323836D01*
X4854702Y7313421D01*
X4849368Y7303008D01*
X4844288Y7287260D01*
X4844288Y7261352D01*
X4849368Y7245858D01*
X4854702Y7235444D01*
X4865115Y7225029D01*
X4875529Y7219950D01*
X4896104Y7219950D01*
X4906518Y7225029D01*
X4916931Y7235444D01*
X4922265Y7245858D01*
X4956556Y7328915D02*
G01*
X4956556Y7219950D01*
X5029200Y7328915D02*
G01*
X5029200Y7219950D01*
X4956556Y7277100D02*
G01*
X5029200Y7277100D01*
X2933700Y3582415D02*
G01*
X2933700Y3473450D01*
X3006343Y3582415D02*
G01*
X3006343Y3473450D01*
X2933700Y3530600D02*
G01*
X3006343Y3530600D01*
X3040634Y3582415D02*
G01*
X3040634Y3473450D01*
X3074924Y3436873D02*
G01*
X3168650Y3436873D01*
X3202940Y3582415D02*
G01*
X3202940Y3473450D01*
X3202940Y3473450D02*
G01*
X3265170Y3473450D01*
X3299459Y3582415D02*
G01*
X3299459Y3473450D01*
X3333750Y3582415D02*
G01*
X3333750Y3473450D01*
X3333750Y3582415D02*
G01*
X3406393Y3473450D01*
X3406393Y3582415D02*
G01*
X3406393Y3473450D01*
X3440684Y3582415D02*
G01*
X3440684Y3473450D01*
X3513581Y3582415D02*
G01*
X3440684Y3509771D01*
X3466845Y3535679D02*
G01*
X3513581Y3473450D01*
X3547872Y3436873D02*
G01*
X3641343Y3436873D01*
X3717290Y3582415D02*
G01*
X3675634Y3473450D01*
X3717290Y3582415D02*
G01*
X3758691Y3473450D01*
X3691127Y3509771D02*
G01*
X3743197Y3509771D01*
X3870959Y3556507D02*
G01*
X3865879Y3566921D01*
X3855465Y3577336D01*
X3845052Y3582415D01*
X3824224Y3582415D01*
X3813809Y3577336D01*
X3803395Y3566921D01*
X3798315Y3556507D01*
X3792981Y3540760D01*
X3792981Y3514852D01*
X3798315Y3499357D01*
X3803395Y3488944D01*
X3813809Y3478529D01*
X3824224Y3473450D01*
X3845052Y3473450D01*
X3855465Y3478529D01*
X3865879Y3488944D01*
X3870959Y3499357D01*
X3905250Y3436873D02*
G01*
X3998722Y3436873D01*
X4033011Y3582415D02*
G01*
X4033011Y3473450D01*
X4033011Y3582415D02*
G01*
X4069334Y3582415D01*
X4085081Y3577336D01*
X4095495Y3566921D01*
X4100575Y3556507D01*
X4105909Y3540760D01*
X4105909Y3514852D01*
X4100575Y3499357D01*
X4095495Y3488944D01*
X4085081Y3478529D01*
X4069334Y3473450D01*
X4033011Y3473450D01*
X4217924Y3556507D02*
G01*
X4212843Y3566921D01*
X4202429Y3577336D01*
X4192015Y3582415D01*
X4171188Y3582415D01*
X4160774Y3577336D01*
X4150359Y3566921D01*
X4145279Y3556507D01*
X4140200Y3540760D01*
X4140200Y3514852D01*
X4145279Y3499357D01*
X4150359Y3488944D01*
X4160774Y3478529D01*
X4171188Y3473450D01*
X4192015Y3473450D01*
X4202429Y3478529D01*
X4212843Y3488944D01*
X4217924Y3499357D01*
X4394200Y6732015D02*
G01*
X4394200Y6623050D01*
X4394200Y6623050D02*
G01*
X4456429Y6623050D01*
X4490720Y6732015D02*
G01*
X4490720Y6623050D01*
X4490720Y6732015D02*
G01*
X4558284Y6732015D01*
X4490720Y6680200D02*
G01*
X4532375Y6680200D01*
X4490720Y6623050D02*
G01*
X4558284Y6623050D01*
X4592574Y6732015D02*
G01*
X4592574Y6623050D01*
X4592574Y6732015D02*
G01*
X4629150Y6732015D01*
X4644643Y6726936D01*
X4655058Y6716521D01*
X4660138Y6706108D01*
X4665472Y6690360D01*
X4665472Y6664452D01*
X4660138Y6648958D01*
X4655058Y6638544D01*
X4644643Y6628129D01*
X4629150Y6623050D01*
X4592574Y6623050D01*
X4699761Y6669786D02*
G01*
X4793234Y6669786D01*
X4827524Y6732015D02*
G01*
X4827524Y6623050D01*
X4827524Y6732015D02*
G01*
X4874259Y6732015D01*
X4889754Y6726936D01*
X4895088Y6721602D01*
X4900168Y6711187D01*
X4900168Y6700773D01*
X4895088Y6690360D01*
X4889754Y6685279D01*
X4874259Y6680200D01*
X4827524Y6680200D01*
X4863845Y6680200D02*
G01*
X4900168Y6623050D01*
X5012436Y6706108D02*
G01*
X5007356Y6716521D01*
X4996941Y6726936D01*
X4986527Y6732015D01*
X4965700Y6732015D01*
X4955286Y6726936D01*
X4944872Y6716521D01*
X4939791Y6706108D01*
X4934458Y6690360D01*
X4934458Y6664452D01*
X4939791Y6648958D01*
X4944872Y6638544D01*
X4955286Y6628129D01*
X4965700Y6623050D01*
X4986527Y6623050D01*
X4996941Y6628129D01*
X5007356Y6638544D01*
X5012436Y6648958D01*
X5012436Y6664452D01*
X4986527Y6664452D02*
G01*
X5012436Y6664452D01*
X5046725Y6732015D02*
G01*
X5046725Y6623050D01*
X5046725Y6732015D02*
G01*
X5093461Y6732015D01*
X5109209Y6726936D01*
X5114290Y6721602D01*
X5119370Y6711187D01*
X5119370Y6700773D01*
X5114290Y6690360D01*
X5109209Y6685279D01*
X5093461Y6680200D01*
X5046725Y6680200D02*
G01*
X5093461Y6680200D01*
X5109209Y6674865D01*
X5114290Y6669786D01*
X5119370Y6659371D01*
X5119370Y6643623D01*
X5114290Y6633210D01*
X5109209Y6628129D01*
X5093461Y6623050D01*
X5046725Y6623050D01*
X1308100Y6960615D02*
G01*
X1308100Y6851650D01*
X1308100Y6960615D02*
G01*
X1354836Y6960615D01*
X1370329Y6955536D01*
X1375663Y6950202D01*
X1380744Y6939787D01*
X1380744Y6929373D01*
X1375663Y6918960D01*
X1370329Y6913879D01*
X1354836Y6908800D01*
X1308100Y6908800D01*
X1344421Y6908800D02*
G01*
X1380744Y6851650D01*
X1415034Y6960615D02*
G01*
X1415034Y6851650D01*
X1415034Y6960615D02*
G01*
X1482597Y6960615D01*
X1415034Y6908800D02*
G01*
X1456689Y6908800D01*
X1415034Y6851650D02*
G01*
X1482597Y6851650D01*
X1516887Y6960615D02*
G01*
X1516887Y6851650D01*
X1516887Y6851650D02*
G01*
X1579371Y6851650D01*
X1655063Y6960615D02*
G01*
X1613662Y6851650D01*
X1655063Y6960615D02*
G01*
X1696720Y6851650D01*
X1629155Y6887971D02*
G01*
X1681226Y6887971D01*
X1731010Y6960615D02*
G01*
X1772665Y6908800D01*
X1772665Y6851650D01*
X1814068Y6960615D02*
G01*
X1772665Y6908800D01*
X1413255Y4966715D02*
G01*
X1371600Y4857750D01*
X1413255Y4966715D02*
G01*
X1454657Y4857750D01*
X1387094Y4894071D02*
G01*
X1439163Y4894071D01*
X1566926Y4940807D02*
G01*
X1561845Y4951221D01*
X1551431Y4961636D01*
X1541018Y4966715D01*
X1520189Y4966715D01*
X1509776Y4961636D01*
X1499362Y4951221D01*
X1494281Y4940807D01*
X1488947Y4925060D01*
X1488947Y4899152D01*
X1494281Y4883657D01*
X1499362Y4873244D01*
X1509776Y4862829D01*
X1520189Y4857750D01*
X1541018Y4857750D01*
X1551431Y4862829D01*
X1561845Y4873244D01*
X1566926Y4883657D01*
X1601215Y4821173D02*
G01*
X1694687Y4821173D01*
X1728978Y4966715D02*
G01*
X1728978Y4857750D01*
X1763268Y4966715D02*
G01*
X1763268Y4857750D01*
X1763268Y4966715D02*
G01*
X1836165Y4857750D01*
X1836165Y4966715D02*
G01*
X1836165Y4857750D01*
X3851656Y5004815D02*
G01*
X3810000Y4895850D01*
X3851656Y5004815D02*
G01*
X3893058Y4895850D01*
X3825493Y4932171D02*
G01*
X3877563Y4932171D01*
X4005325Y4978907D02*
G01*
X4000245Y4989321D01*
X3989831Y4999736D01*
X3979418Y5004815D01*
X3958590Y5004815D01*
X3948175Y4999736D01*
X3937761Y4989321D01*
X3932681Y4978907D01*
X3927347Y4963160D01*
X3927347Y4937252D01*
X3932681Y4921757D01*
X3937761Y4911344D01*
X3948175Y4900929D01*
X3958590Y4895850D01*
X3979418Y4895850D01*
X3989831Y4900929D01*
X4000245Y4911344D01*
X4005325Y4921757D01*
X4039615Y4859273D02*
G01*
X4133088Y4859273D01*
X4198620Y5004815D02*
G01*
X4188206Y4999736D01*
X4177791Y4989321D01*
X4172711Y4978907D01*
X4167377Y4963160D01*
X4167377Y4937252D01*
X4172711Y4921757D01*
X4177791Y4911344D01*
X4188206Y4900929D01*
X4198620Y4895850D01*
X4219447Y4895850D01*
X4229861Y4900929D01*
X4240275Y4911344D01*
X4245356Y4921757D01*
X4250690Y4937252D01*
X4250690Y4963160D01*
X4245356Y4978907D01*
X4240275Y4989321D01*
X4229861Y4999736D01*
X4219447Y5004815D01*
X4198620Y5004815D01*
X4284979Y5004815D02*
G01*
X4284979Y4926837D01*
X4290059Y4911344D01*
X4300474Y4900929D01*
X4315968Y4895850D01*
X4326381Y4895850D01*
X4342129Y4900929D01*
X4352290Y4911344D01*
X4357624Y4926837D01*
X4357624Y5004815D01*
X4428236Y5004815D02*
G01*
X4428236Y4895850D01*
X4391913Y5004815D02*
G01*
X4464558Y5004815D01*
X4559300Y9373615D02*
G01*
X4559300Y9264650D01*
X4559300Y9373615D02*
G01*
X4606036Y9373615D01*
X4621529Y9368536D01*
X4626863Y9363202D01*
X4631943Y9352787D01*
X4631943Y9342374D01*
X4626863Y9331960D01*
X4621529Y9326879D01*
X4606036Y9321800D01*
X4559300Y9321800D01*
X4595622Y9321800D02*
G01*
X4631943Y9264650D01*
X4666234Y9352787D02*
G01*
X4676647Y9358121D01*
X4692395Y9373615D01*
X4692395Y9264650D01*
X4572000Y8891015D02*
G01*
X4572000Y8782050D01*
X4572000Y8891015D02*
G01*
X4618736Y8891015D01*
X4634229Y8885936D01*
X4639563Y8880602D01*
X4644643Y8870187D01*
X4644643Y8859774D01*
X4639563Y8849360D01*
X4634229Y8844279D01*
X4618736Y8839200D01*
X4572000Y8839200D01*
X4608322Y8839200D02*
G01*
X4644643Y8782050D01*
X4684268Y8865108D02*
G01*
X4684268Y8870187D01*
X4689347Y8880602D01*
X4694681Y8885936D01*
X4705095Y8891015D01*
X4725670Y8891015D01*
X4736084Y8885936D01*
X4741418Y8880602D01*
X4746497Y8870187D01*
X4746497Y8859774D01*
X4741418Y8849360D01*
X4731004Y8833865D01*
X4678934Y8782050D01*
X4751831Y8782050D01*
X4584700Y8408415D02*
G01*
X4584700Y8299450D01*
X4584700Y8408415D02*
G01*
X4631436Y8408415D01*
X4646929Y8403336D01*
X4652263Y8398002D01*
X4657343Y8387587D01*
X4657343Y8377173D01*
X4652263Y8366760D01*
X4646929Y8361679D01*
X4631436Y8356600D01*
X4584700Y8356600D01*
X4621022Y8356600D02*
G01*
X4657343Y8299450D01*
X4702047Y8408415D02*
G01*
X4759197Y8408415D01*
X4728209Y8366760D01*
X4743704Y8366760D01*
X4754118Y8361679D01*
X4759197Y8356600D01*
X4764531Y8340852D01*
X4764531Y8330437D01*
X4759197Y8314944D01*
X4748784Y8304529D01*
X4733290Y8299450D01*
X4717795Y8299450D01*
X4702047Y8304529D01*
X4696968Y8309610D01*
X4691634Y8320023D01*
X4584700Y7938515D02*
G01*
X4584700Y7829550D01*
X4584700Y7938515D02*
G01*
X4631436Y7938515D01*
X4646929Y7933436D01*
X4652263Y7928102D01*
X4657343Y7917687D01*
X4657343Y7907273D01*
X4652263Y7896860D01*
X4646929Y7891779D01*
X4631436Y7886700D01*
X4584700Y7886700D01*
X4621022Y7886700D02*
G01*
X4657343Y7829550D01*
X4743704Y7938515D02*
G01*
X4691634Y7865871D01*
X4769611Y7865871D01*
X4743704Y7938515D02*
G01*
X4743704Y7829550D01*
X2452115Y5041900D02*
G01*
X2343150Y5041900D01*
X2452115Y5041900D02*
G01*
X2452115Y4995163D01*
X2447036Y4979670D01*
X2441702Y4974336D01*
X2431288Y4969255D01*
X2420874Y4969255D01*
X2410459Y4974336D01*
X2405379Y4979670D01*
X2400300Y4995163D01*
X2400300Y5041900D01*
X2400300Y5005578D02*
G01*
X2343150Y4969255D01*
X2452115Y4872481D02*
G01*
X2452115Y4924552D01*
X2405379Y4929631D01*
X2410459Y4924552D01*
X2415793Y4908804D01*
X2415793Y4893310D01*
X2410459Y4877815D01*
X2400300Y4867402D01*
X2384552Y4862068D01*
X2374138Y4862068D01*
X2358643Y4867402D01*
X2348229Y4877815D01*
X2343150Y4893310D01*
X2343150Y4908804D01*
X2348229Y4924552D01*
X2353309Y4929631D01*
X2363724Y4934965D01*
X2896615Y5041900D02*
G01*
X2787650Y5041900D01*
X2896615Y5041900D02*
G01*
X2896615Y4995163D01*
X2891536Y4979670D01*
X2886202Y4974336D01*
X2875788Y4969255D01*
X2865374Y4969255D01*
X2854959Y4974336D01*
X2849879Y4979670D01*
X2844800Y4995163D01*
X2844800Y5041900D01*
X2844800Y5005578D02*
G01*
X2787650Y4969255D01*
X2881122Y4872481D02*
G01*
X2891536Y4877815D01*
X2896615Y4893310D01*
X2896615Y4903723D01*
X2891536Y4919218D01*
X2875788Y4929631D01*
X2849879Y4934965D01*
X2823972Y4934965D01*
X2803143Y4929631D01*
X2792729Y4919218D01*
X2787650Y4903723D01*
X2787650Y4898389D01*
X2792729Y4882895D01*
X2803143Y4872481D01*
X2818638Y4867402D01*
X2823972Y4867402D01*
X2839465Y4872481D01*
X2849879Y4882895D01*
X2854959Y4898389D01*
X2854959Y4903723D01*
X2849879Y4919218D01*
X2839465Y4929631D01*
X2823972Y4934965D01*
X2452115Y4051300D02*
G01*
X2343150Y4051300D01*
X2452115Y4051300D02*
G01*
X2452115Y4004563D01*
X2447036Y3989070D01*
X2441702Y3983736D01*
X2431288Y3978655D01*
X2420874Y3978655D01*
X2410459Y3983736D01*
X2405379Y3989070D01*
X2400300Y4004563D01*
X2400300Y4051300D01*
X2400300Y4014978D02*
G01*
X2343150Y3978655D01*
X2452115Y3871468D02*
G01*
X2343150Y3923537D01*
X2452115Y3944365D02*
G01*
X2452115Y3871468D01*
X2896615Y4051300D02*
G01*
X2787650Y4051300D01*
X2896615Y4051300D02*
G01*
X2896615Y4004563D01*
X2891536Y3989070D01*
X2886202Y3983736D01*
X2875788Y3978655D01*
X2865374Y3978655D01*
X2854959Y3983736D01*
X2849879Y3989070D01*
X2844800Y4004563D01*
X2844800Y4051300D01*
X2844800Y4014978D02*
G01*
X2787650Y3978655D01*
X2896615Y3918204D02*
G01*
X2891536Y3933952D01*
X2881122Y3939031D01*
X2870708Y3939031D01*
X2860293Y3933952D01*
X2854959Y3923537D01*
X2849879Y3902710D01*
X2844800Y3887215D01*
X2834386Y3876802D01*
X2823972Y3871468D01*
X2808224Y3871468D01*
X2797809Y3876802D01*
X2792729Y3881881D01*
X2787650Y3897629D01*
X2787650Y3918204D01*
X2792729Y3933952D01*
X2797809Y3939031D01*
X2808224Y3944365D01*
X2823972Y3944365D01*
X2834386Y3939031D01*
X2844800Y3928618D01*
X2849879Y3913123D01*
X2854959Y3892295D01*
X2860293Y3881881D01*
X2870708Y3876802D01*
X2881122Y3876802D01*
X2891536Y3881881D01*
X2896615Y3897629D01*
X2896615Y3918204D01*
X3328415Y4038600D02*
G01*
X3219450Y4038600D01*
X3328415Y4038600D02*
G01*
X3328415Y3991863D01*
X3323336Y3976370D01*
X3318002Y3971036D01*
X3307588Y3965955D01*
X3297174Y3965955D01*
X3286759Y3971036D01*
X3281679Y3976370D01*
X3276600Y3991863D01*
X3276600Y4038600D01*
X3276600Y4002278D02*
G01*
X3219450Y3965955D01*
X3292093Y3864102D02*
G01*
X3276600Y3869181D01*
X3266186Y3879595D01*
X3260852Y3895089D01*
X3260852Y3900423D01*
X3266186Y3915918D01*
X3276600Y3926331D01*
X3292093Y3931665D01*
X3297174Y3931665D01*
X3312922Y3926331D01*
X3323336Y3915918D01*
X3328415Y3900423D01*
X3328415Y3895089D01*
X3323336Y3879595D01*
X3312922Y3869181D01*
X3292093Y3864102D01*
X3266186Y3864102D01*
X3240024Y3869181D01*
X3224529Y3879595D01*
X3219450Y3895089D01*
X3219450Y3905504D01*
X3224529Y3921252D01*
X3234943Y3926331D01*
D22*
X2709339Y6081867D02*
G01*
X2679621Y6004397D01*
X2709339Y6081867D02*
G01*
X2738803Y6004397D01*
X2690797Y6030305D02*
G01*
X2727627Y6030305D01*
X2818559Y6063325D02*
G01*
X2815003Y6070945D01*
X2807637Y6078311D01*
X2800017Y6081867D01*
X2785285Y6081867D01*
X2777919Y6078311D01*
X2770553Y6070945D01*
X2766997Y6063325D01*
X2763187Y6052403D01*
X2763187Y6033861D01*
X2766997Y6022685D01*
X2770553Y6015319D01*
X2777919Y6007953D01*
X2785285Y6004397D01*
X2800017Y6004397D01*
X2807637Y6007953D01*
X2815003Y6015319D01*
X2818559Y6022685D01*
X2894759Y6070945D02*
G01*
X2887393Y6078311D01*
X2876217Y6081867D01*
X2861485Y6081867D01*
X2850309Y6078311D01*
X2842943Y6070945D01*
X2842943Y6063325D01*
X2846753Y6055959D01*
X2850309Y6052403D01*
X2857675Y6048593D01*
X2880027Y6041227D01*
X2887393Y6037671D01*
X2890949Y6033861D01*
X2894759Y6026495D01*
X2894759Y6015319D01*
X2887393Y6007953D01*
X2876217Y6004397D01*
X2861485Y6004397D01*
X2850309Y6007953D01*
X2842943Y6015319D01*
X2970705Y6081867D02*
G01*
X2933875Y6004397D01*
X2919143Y6081867D02*
G01*
X2970705Y6081867D01*
X2995089Y6067135D02*
G01*
X3002709Y6070945D01*
X3013631Y6081867D01*
X3013631Y6004397D01*
X3060113Y6081867D02*
G01*
X3049191Y6078311D01*
X3041825Y6067135D01*
X3038015Y6048593D01*
X3038015Y6037671D01*
X3041825Y6019129D01*
X3049191Y6007953D01*
X3060113Y6004397D01*
X3067733Y6004397D01*
X3078655Y6007953D01*
X3086021Y6019129D01*
X3089831Y6037671D01*
X3089831Y6048593D01*
X3086021Y6067135D01*
X3078655Y6078311D01*
X3067733Y6081867D01*
X3060113Y6081867D01*
X3117771Y6063325D02*
G01*
X3117771Y6067135D01*
X3121581Y6074501D01*
X3125137Y6078311D01*
X3132757Y6081867D01*
X3147489Y6081867D01*
X3154855Y6078311D01*
X3158411Y6074501D01*
X3162221Y6067135D01*
X3162221Y6059769D01*
X3158411Y6052403D01*
X3151045Y6041227D01*
X3114215Y6004397D01*
X3165777Y6004397D01*
X3212513Y6081867D02*
G01*
X3201337Y6078311D01*
X3193971Y6067135D01*
X3190161Y6048593D01*
X3190161Y6037671D01*
X3193971Y6019129D01*
X3201337Y6007953D01*
X3212513Y6004397D01*
X3219879Y6004397D01*
X3230801Y6007953D01*
X3238421Y6019129D01*
X3241977Y6037671D01*
X3241977Y6048593D01*
X3238421Y6067135D01*
X3230801Y6078311D01*
X3219879Y6081867D01*
X3212513Y6081867D01*
D26*
X1346200Y6046215D02*
G01*
X1346200Y5937250D01*
X1346200Y6046215D02*
G01*
X1392936Y6046215D01*
X1408429Y6041136D01*
X1413763Y6035802D01*
X1418844Y6025387D01*
X1418844Y6014973D01*
X1413763Y6004560D01*
X1408429Y5999479D01*
X1392936Y5994400D01*
X1346200Y5994400D01*
X1382521Y5994400D02*
G01*
X1418844Y5937250D01*
X1453134Y6025387D02*
G01*
X1463547Y6030721D01*
X1479295Y6046215D01*
X1479295Y5937250D01*
X1513586Y6025387D02*
G01*
X1524000Y6030721D01*
X1539494Y6046215D01*
X1539494Y5937250D01*
D10*
X930910Y9618979D02*
G01*
X930910Y7119620D01*
X930910Y7119620D02*
G01*
X3031490Y7119620D01*
X3031490Y7119620D02*
G01*
X3679190Y7919720D01*
X3679190Y7919720D02*
G01*
X3679190Y8869679D01*
X3679190Y8869679D02*
G01*
X3031490Y9618979D01*
X3031490Y9618979D02*
G01*
X930910Y9618979D01*
X1060450Y6321425D02*
G01*
X1631950Y6321425D01*
X1631950Y6099175D01*
X1060450Y6099175D01*
X1060450Y6321425D01*
X1003300Y5422900D02*
G01*
X1511300Y5422900D01*
X1511300Y5168900D01*
X1003300Y5168900D01*
X1003300Y5422900D01*
X4216400Y7175500D02*
G01*
X4724400Y7175500D01*
X4724400Y6921500D01*
X4216400Y6921500D01*
X4216400Y7175500D01*
X1231900Y3441700D02*
G01*
X1231900Y1409700D01*
X4635500Y1409700D01*
X4635500Y3441700D01*
X1257300Y3441700D01*
X1231900Y3441700D01*
X4668520Y6212839D02*
G01*
X4668520Y6410960D01*
D22*
X1143000Y6819900D02*
G01*
X952500Y6819900D01*
X952500Y6565900D01*
X1714500Y6565900D01*
X1714500Y6819900D01*
D23*
X1714500Y6819900D02*
G01*
X1143000Y6819900D01*
D24*
X1016000Y4826000D02*
G01*
X1775993Y4826000D01*
X1775993Y3775989D01*
X1016000Y3775989D01*
X1016000Y4826000D01*
X3454400Y4864100D02*
G01*
X4214393Y4864100D01*
X4214393Y3814089D01*
X3454400Y3814089D01*
X3454400Y4864100D01*
D10*
X4273550Y9217025D02*
G01*
X4845050Y9217025D01*
X4845050Y8994775D01*
X4273550Y8994775D01*
X4273550Y9217025D01*
X4286250Y8734425D02*
G01*
X4857750Y8734425D01*
X4857750Y8512175D01*
X4286250Y8512175D01*
X4286250Y8734425D01*
X4298950Y8251825D02*
G01*
X4870450Y8251825D01*
X4870450Y8029575D01*
X4298950Y8029575D01*
X4298950Y8251825D01*
X4298950Y7781925D02*
G01*
X4870450Y7781925D01*
X4870450Y7559675D01*
X4298950Y7559675D01*
X4298950Y7781925D01*
X2295525Y5327650D02*
G01*
X2295525Y4756150D01*
X2073275Y4756150D01*
X2073275Y5327650D01*
X2295525Y5327650D01*
X2740025Y5327650D02*
G01*
X2740025Y4756150D01*
X2517775Y4756150D01*
X2517775Y5327650D01*
X2740025Y5327650D01*
X2295525Y4337050D02*
G01*
X2295525Y3765550D01*
X2073275Y3765550D01*
X2073275Y4337050D01*
X2295525Y4337050D01*
X2740025Y4337050D02*
G01*
X2740025Y3765550D01*
X2517775Y3765550D01*
X2517775Y4337050D01*
X2740025Y4337050D01*
X3171825Y4324350D02*
G01*
X3171825Y3752850D01*
X2949575Y3752850D01*
X2949575Y4324350D01*
X3171825Y4324350D01*
X2382944Y6649417D02*
G01*
X3412939Y6649417D01*
X3412939Y5899406D01*
X2382944Y5899406D01*
X2382944Y6649417D01*
X1060450Y5889625D02*
G01*
X1631950Y5889625D01*
X1631950Y5667375D01*
X1060450Y5667375D01*
X1060450Y5889625D01*
G75*
G01*
X4669599Y6211900D02*
G02*
X4669599Y6411900I-249999J100000D01*
D25*
G75*
G01
X2515641Y6021705D02*
G03X2515641Y6021705I-24994J0D01*
M02*
